# Blender v2.83.4 OBJ File: 'person thing 2.blend'
# www.blender.org
mtllib collision model test.mtl
o Cylinder
v -0.183754 1.348283 -0.991590
v 0.183754 1.398966 -0.996472
v 0.183754 1.203478 -0.958183
v -0.183754 1.066424 -0.904009
v -0.183754 0.921141 -0.817765
v 0.183754 0.993071 -0.866555
v -0.183754 0.760260 -0.677515
v 0.183754 0.773057 -0.691274
v 0.183754 0.622224 -0.485500
v -0.183754 0.597091 -0.439547
v 0.183754 0.557045 -0.340538
v -0.183754 0.528178 -0.249992
v 0.183754 0.512294 -0.178711
v -0.183754 0.499851 -0.076617
v 0.183754 0.497297 0.044258
v -0.183754 0.501263 0.099968
v -0.183754 0.537483 0.280881
v 0.183754 0.544946 0.310029
v -0.183754 0.597209 0.439420
v 0.183754 0.644477 0.525386
v -0.183754 0.713386 0.625118
v 0.183754 0.787182 0.704913
v 0.183754 0.913602 0.812583
v -0.183754 0.881789 0.790917
v -0.183754 1.070321 0.905200
v 0.183754 1.050863 0.895920
v -0.183754 1.335787 0.989421
v 0.183754 1.348919 0.992667
v -0.183754 1.563384 0.999557
v 0.183754 1.581326 0.997438
v -0.183754 1.828153 0.944963
v 0.183754 1.815692 0.949406
v -0.183754 2.009454 0.861012
v 0.183754 1.994892 0.869630
v 0.183754 2.176604 0.735692
v 0.183754 2.284197 0.620111
v -0.183754 2.228081 0.686618
v 0.183754 2.365448 0.498190
v -0.183754 2.370565 0.492510
v 0.183754 2.431487 0.362202
v -0.183754 2.438965 0.339672
v 0.183754 2.479889 0.195287
v -0.183754 2.478750 0.202661
v -0.183754 2.499609 -0.039197
v 0.183754 2.499450 -0.020209
v -0.183754 2.456552 -0.288371
v 0.183754 2.460250 -0.275660
v -0.183754 2.352021 -0.526811
v 0.183754 2.365066 -0.504605
v 0.183754 2.145309 -0.765550
v -0.183754 2.130774 -0.777279
v -0.183754 1.890746 -0.920664
v 0.183754 1.906978 -0.913913
v 0.183754 1.720492 -0.976793
v -0.183754 1.702134 -0.980075
v -0.183754 1.552426 -0.999133
v 0.183754 1.554480 -0.998851
vt 0.523701 1.000000
vt 0.489593 0.500000
vt 0.525844 0.500000
vt 0.734089 0.500000
vt 0.699940 1.000000
vt 0.704720 0.500000
vt 0.625655 1.000000
vt 0.605331 0.500000
vt 0.642915 0.500000
vt 0.742968 1.000000
vt 0.762196 0.500000
vt 0.778551 1.000000
vt 0.356285 1.000000
vt 0.331779 0.500000
vt 0.370105 0.500000
vt 0.952559 1.000000
vt 0.916059 1.000000
vt 0.929126 0.500000
vt 0.976175 0.500000
vt 0.902240 0.500000
vt 0.830575 1.000000
vt 0.805275 1.000000
vt 0.822253 0.500000
vt 0.064200 0.500000
vt 0.035667 1.000000
vt 0.032710 0.500000
vt 0.868241 0.500000
vt 0.203502 0.500000
vt 0.166147 1.000000
vt 0.162050 0.500000
vt 0.008689 0.500000
vt 0.984252 1.000000
vt 0.790159 0.500000
vt 0.414680 0.500000
vt 0.381413 1.000000
vt 0.108772 0.500000
vt 0.066995 1.000000
vt 0.599221 1.000000
vt 0.009018 1.000000
vt 0.243787 0.500000
vt 0.205609 1.000000
vt 0.246803 1.000000
vt 0.282433 0.500000
vt 0.281250 1.000000
vt 0.677759 0.500000
vt 0.662178 1.000000
vt 0.111743 1.000000
vt 0.417371 1.000000
vt 0.446491 0.500000
vt 0.448595 1.000000
vt 0.570232 0.500000
vt 0.573664 1.000000
vt 0.871232 1.000000
vt 0.486720 1.000000
vt 0.305135 0.500000
vt 0.308909 1.000000
vt 0.041971 0.130542
vt 0.236430 0.489491
vt 0.019430 0.316040
vt 0.524378 0.168564
vt 0.980196 0.182677
vt 0.670904 0.023697
vt 0.332967 1.000000
vt 0.131119 0.041985
vt 0.173903 0.022666
vt 0.087399 0.073747
vt 0.230007 0.011069
vt 0.285486 0.013439
vt 0.356994 0.035562
vt 0.390008 0.055286
vt 0.420204 0.081184
vt 0.475558 0.331642
vt 0.453884 0.124485
vt 0.477732 0.175907
vt 0.489377 0.239412
vt 0.485742 0.292748
vt 0.459619 0.366224
vt 0.423368 0.415346
vt 0.273677 0.488508
vt 0.370467 0.456831
vt 0.320329 0.478911
vt 0.196790 0.483509
vt 0.152012 0.468897
vt 0.095495 0.432668
vt 0.043231 0.370287
vt 0.010661 0.254815
vt 0.014886 0.203242
vt 0.026529 0.163298
vt 0.061802 0.101578
vt 0.655935 0.470432
vt 0.701108 0.484607
vt 0.736925 0.489501
vt 0.785690 0.486630
vt 0.853203 0.466223
vt 0.888254 0.446030
vt 0.926424 0.412036
vt 0.982096 0.309836
vt 0.965162 0.354987
vt 0.989068 0.268352
vt 0.988376 0.226085
vt 0.965346 0.144930
vt 0.897146 0.061101
vt 0.937224 0.100795
vt 0.852364 0.033259
vt 0.788704 0.013697
vt 0.734332 0.010944
vt 0.627611 0.044014
vt 0.575655 0.086076
vt 0.541429 0.132291
vt 0.515318 0.201511
vt 0.520335 0.319085
vt 0.510734 0.259356
vt 0.546332 0.375619
vt 0.598940 0.435519
vn -0.0072 -0.0445 0.9990
vn 0.0043 -0.9805 0.1963
vn -0.0138 -0.7015 0.7125
vn 0.0151 -0.9976 -0.0671
vn -0.0160 0.8060 0.5917
vn 0.0137 -0.3992 -0.9167
vn -0.0301 -0.2966 -0.9545
vn -0.0142 -0.5104 -0.8598
vn 0.0111 -0.9120 -0.4101
vn -0.0065 0.3004 -0.9538
vn -0.0143 -0.8247 -0.5654
vn -0.0082 0.9158 -0.4015
vn -0.0082 -0.0369 -0.9993
vn -0.0114 -0.9869 -0.1612
vn -0.0170 0.6235 0.7816
vn -0.0069 0.5128 -0.8585
vn 0.0135 -0.1922 -0.9813
vn 0.0112 -0.6483 0.7613
vn 0.0100 -0.9638 -0.2665
vn 0.0001 0.1263 -0.9920
vn 0.0115 0.7319 0.6813
vn -0.0040 0.9854 -0.1703
vn -0.0013 0.9959 0.0904
vn -0.0150 -0.8477 0.5303
vn -0.0085 0.7494 -0.6620
vn 0.0027 0.4067 0.9136
vn -0.0059 -0.5190 0.8548
vn -0.0053 -0.6571 -0.7538
vn -0.0042 0.2019 0.9794
vn 0.0024 -0.3024 0.9532
vn -0.0090 -0.9358 0.3525
vn 0.0221 -0.7826 0.6221
vn 0.0186 -0.9076 0.4195
vn 0.0026 0.9603 0.2789
vn -0.0065 0.9127 0.4085
vn 1.0000 -0.0000 -0.0000
vn -1.0000 0.0000 -0.0000
vn 0.0068 -0.0205 0.9998
vn 0.0161 -0.9842 0.1765
vn -0.0096 -0.9999 0.0080
vn 0.0030 0.8321 0.5546
vn 0.0033 0.3195 -0.9476
vn 0.0060 -0.8065 -0.5912
vn 0.0040 0.9234 -0.3839
vn 0.0009 -0.0153 -0.9999
vn 0.0046 0.5933 0.8050
vn 0.0062 0.5285 -0.8489
vn -0.0104 -0.9398 -0.3417
vn 0.0023 0.1317 -0.9913
vn 0.0083 0.9884 -0.1517
vn -0.0040 0.9963 0.0859
vn 0.0118 0.7648 -0.6441
vn -0.0046 0.4202 0.9074
vn -0.0055 -0.5184 0.8551
vn 0.0181 -0.6230 -0.7820
vn -0.0050 0.2008 0.9796
vn 0.0077 -0.3087 0.9511
vn 0.0025 0.9604 0.2785
vn 0.0058 0.8995 0.4368
usemtl None
s off
f 28/1/1 29/2/1 27/3/1
f 16/4/2 18/5/2 17/6/2
f 22/7/3 24/8/3 21/9/3
f 15/10/4 14/11/4 13/12/4
f 36/13/5 39/14/5 37/15/5
f 3/16/6 6/17/6 4/18/6
f 3/16/7 4/18/7 1/19/7
f 5/20/8 4/18/8 6/17/8
f 9/21/9 11/22/9 10/23/9
f 52/24/10 54/25/10 55/26/10
f 7/27/11 9/21/11 10/23/11
f 46/28/12 49/29/12 48/30/12
f 56/31/13 2/32/13 1/19/13
f 13/12/14 14/11/14 12/33/14
f 33/34/15 35/35/15 37/15/15
f 51/36/16 53/37/16 52/24/16
f 2/32/17 3/16/17 1/19/17
f 22/7/18 23/38/18 24/8/18
f 12/33/19 11/22/19 13/12/19
f 55/26/20 57/39/20 56/31/20
f 35/35/21 36/13/21 37/15/21
f 44/40/22 47/41/22 46/28/22
f 45/42/23 43/43/23 42/44/23
f 21/9/24 19/45/24 20/46/24
f 48/30/25 50/47/25 51/36/25
f 34/48/26 31/49/26 32/50/26
f 25/51/27 23/38/27 26/52/27
f 5/20/28 8/53/28 7/27/28
f 30/54/29 31/49/29 29/2/29
f 25/51/30 28/1/30 27/3/30
f 19/45/31 17/6/31 18/5/31
f 20/46/32 22/7/32 21/9/32
f 18/5/33 20/46/33 19/45/33
f 41/55/34 42/44/34 43/43/34
f 39/14/35 40/56/35 41/55/35
f 38/57/36 57/58/36 47/59/36
f 41/60/37 17/61/37 31/62/37
f 28/1/38 30/54/38 29/2/38
f 16/4/39 15/10/39 18/5/39
f 15/10/40 16/4/40 14/11/40
f 36/13/41 38/63/41 39/14/41
f 52/24/42 53/37/42 54/25/42
f 7/27/43 8/53/43 9/21/43
f 46/28/44 47/41/44 49/29/44
f 56/31/45 57/39/45 2/32/45
f 33/34/46 34/48/46 35/35/46
f 51/36/47 50/47/47 53/37/47
f 12/33/48 10/23/48 11/22/48
f 55/26/49 54/25/49 57/39/49
f 44/40/50 45/42/50 47/41/50
f 45/42/51 44/40/51 43/43/51
f 48/30/52 49/29/52 50/47/52
f 34/48/53 33/34/53 31/49/53
f 25/51/54 24/8/54 23/38/54
f 5/20/55 6/17/55 8/53/55
f 30/54/56 32/50/56 31/49/56
f 25/51/57 26/52/57 28/1/57
f 41/55/58 40/56/58 42/44/58
f 39/14/59 38/63/59 40/56/59
f 34/64/36 32/65/36 35/66/36
f 32/65/36 30/67/36 35/66/36
f 30/67/36 28/68/36 26/69/36
f 26/69/36 23/70/36 30/67/36
f 23/70/36 22/71/36 11/72/36
f 30/67/36 23/70/36 38/57/36
f 22/71/36 20/73/36 18/74/36
f 18/74/36 15/75/36 22/71/36
f 15/75/36 13/76/36 11/72/36
f 22/71/36 15/75/36 11/72/36
f 11/72/36 9/77/36 8/78/36
f 57/58/36 8/78/36 2/79/36
f 8/78/36 6/80/36 3/81/36
f 2/79/36 8/78/36 3/81/36
f 57/58/36 54/82/36 53/83/36
f 11/72/36 38/57/36 23/70/36
f 53/83/36 50/84/36 47/59/36
f 50/84/36 49/85/36 47/59/36
f 47/59/36 45/86/36 42/87/36
f 42/87/36 40/88/36 38/57/36
f 38/57/36 36/89/36 35/66/36
f 8/78/36 57/58/36 11/72/36
f 38/57/36 11/72/36 57/58/36
f 53/83/36 47/59/36 57/58/36
f 47/59/36 42/87/36 38/57/36
f 38/57/36 35/66/36 30/67/36
f 52/90/37 55/91/37 56/92/37
f 56/92/37 1/93/37 4/94/37
f 4/94/37 5/95/37 56/92/37
f 5/95/37 7/96/37 12/97/37
f 7/96/37 10/98/37 12/97/37
f 12/97/37 14/99/37 5/95/37
f 14/99/37 16/100/37 17/61/37
f 17/61/37 19/101/37 24/102/37
f 19/101/37 21/103/37 24/102/37
f 24/102/37 25/104/37 17/61/37
f 25/104/37 27/105/37 29/106/37
f 29/106/37 31/62/37 25/104/37
f 31/62/37 33/107/37 41/60/37
f 33/107/37 37/108/37 41/60/37
f 37/108/37 39/109/37 41/60/37
f 41/60/37 43/110/37 46/111/37
f 43/110/37 44/112/37 46/111/37
f 46/111/37 48/113/37 51/114/37
f 52/90/37 46/111/37 51/114/37
f 52/90/37 56/92/37 46/111/37
f 56/92/37 41/60/37 46/111/37
f 14/99/37 17/61/37 5/95/37
f 17/61/37 25/104/37 31/62/37
f 56/92/37 5/95/37 17/61/37
f 41/60/37 56/92/37 17/61/37
o Cylinder.001
v 0.183754 -0.144168 0.994605
v 0.183754 0.050218 0.952945
v -0.183754 -0.098444 0.988703
v -0.183754 0.200536 0.892245
v -0.183754 0.441726 0.712610
v 0.183754 0.361829 0.790416
v 0.183754 0.628001 0.465658
v -0.183754 0.629396 0.461162
v -0.183754 0.717263 0.211150
v 0.183754 0.717871 0.207243
v 0.183754 0.740918 -0.079557
v -0.183754 0.740744 -0.101170
v -0.183754 0.640451 -0.435577
v 0.183754 0.651381 -0.411615
v -0.183754 0.517351 -0.631533
v 0.183754 0.570875 -0.556373
v 0.183754 0.394261 -0.762139
v -0.183754 0.311849 -0.822795
v -0.183754 0.133928 -0.919362
v 0.183754 0.116329 -0.929646
v -0.183754 -0.083036 -0.987325
v 0.183754 -0.121605 -0.992810
v -0.183754 -1.936240 -0.999931
v -0.183754 -1.936240 0.999931
v 0.183754 -1.936240 -0.999931
v 0.183754 -1.936240 0.999931
vt 0.141591 0.500000
vt 0.113110 1.000000
vt 0.096898 0.500000
vt 0.393691 1.000000
vt 0.423928 0.500000
vt 0.449656 1.000000
vt 0.283187 1.000000
vt 0.325997 0.500000
vt 0.326734 1.000000
vt 0.061473 1.000000
vt 0.022324 1.000000
vt 0.028518 0.500000
vt 0.501765 0.500000
vt 0.481279 1.000000
vt 0.473956 0.500000
vt 0.064689 0.500000
vt 0.156252 1.000000
vt 0.376032 0.500000
vt 0.998241 0.500000
vt 0.998241 1.000000
vt 0.237403 1.000000
vt 0.283813 0.500000
vt 0.178416 0.500000
vt 0.182604 1.000000
vt 0.233986 0.500000
vt 0.710999 0.013848
vt 0.581615 0.079430
vt 0.655201 0.470283
vt 0.221869 0.012021
vt 0.050722 0.383163
vt 0.015495 0.200388
vt 0.274776 0.115175
vt 0.225234 0.384823
vt 0.274778 0.384815
vt 0.501765 1.000000
vt 0.537545 0.140079
vt 0.515802 0.199490
vt 0.512937 0.273933
vt 0.534220 0.354187
vt 0.564212 0.400608
vt 0.613095 0.446391
vt 0.707406 0.485228
vt 0.752652 0.489983
vt 0.752654 0.010017
vt 0.640119 0.037911
vt 0.252654 0.010017
vt 0.252652 0.489983
vt 0.216547 0.487037
vt 0.159909 0.471564
vt 0.094211 0.431015
vt 0.031434 0.348525
vt 0.012347 0.268840
vt 0.038256 0.139198
vt 0.175522 0.022462
vt 0.102297 0.062793
vt 0.225236 0.115181
vn -0.0319 0.6809 -0.7316
vn 0.0427 0.4620 0.8858
vn -0.0004 0.9445 0.3285
vn 0.0125 0.2566 -0.9664
vn -0.0153 0.0061 0.9999
vn -0.0124 0.2989 -0.9542
vn 0.0227 0.7586 -0.6511
vn -0.0043 0.8014 0.5981
vn 0.0256 0.5160 -0.8562
vn -0.0000 0.0039 -1.0000
vn -0.0008 0.9968 0.0801
vn -0.0399 0.5968 0.8014
vn 0.0057 0.8739 -0.4860
vn -0.0098 0.9578 -0.2873
vn -0.0018 0.4770 -0.8789
vn 0.0104 0.2095 0.9777
vn -0.0316 0.3069 0.9512
vn -1.0000 0.0000 -0.0000
vn 1.0000 -0.0000 -0.0000
vn -0.0000 -1.0000 0.0000
vn 0.0020 0.9434 0.3316
vn 0.0000 0.0030 1.0000
vn 0.0339 0.7730 0.6335
vn -0.0142 0.0068 -0.9999
vn -0.0049 0.9972 0.0750
vn -0.0145 0.8467 -0.5319
vn 0.0149 0.9654 -0.2603
usemtl None
s off
f 72/115/60 74/116/60 75/117/60
f 63/118/61 61/119/61 59/120/61
f 67/121/62 65/122/62 64/123/62
f 77/124/63 79/125/63 78/126/63
f 81/127/64 58/128/64 60/129/64
f 78/126/65 76/130/65 77/124/65
f 73/131/66 74/116/66 72/115/66
f 62/132/67 64/123/67 65/122/67
f 74/116/68 77/124/68 75/117/68
f 80/133/69 79/125/69 82/134/69
f 68/135/70 66/136/70 67/121/70
f 63/118/71 62/132/71 61/119/71
f 73/131/72 70/137/72 71/138/72
f 69/139/73 71/138/73 70/137/73
f 76/130/74 75/117/74 77/124/74
f 58/128/75 59/120/75 60/129/75
f 60/129/76 59/120/76 61/119/76
f 60/140/77 62/141/77 76/142/77
f 58/143/78 73/144/78 67/145/78
f 83/146/79 80/147/79 82/148/79
f 67/121/80 66/136/80 65/122/80
f 81/127/81 83/149/81 58/128/81
f 62/132/82 63/118/82 64/123/82
f 80/133/83 78/126/83 79/125/83
f 68/135/84 69/139/84 66/136/84
f 73/131/85 72/115/85 70/137/85
f 69/139/86 68/135/86 71/138/86
f 65/150/77 66/151/77 62/141/77
f 66/151/77 69/152/77 70/153/77
f 62/141/77 66/151/77 76/142/77
f 70/153/77 72/154/77 76/142/77
f 66/151/77 70/153/77 76/142/77
f 72/154/77 75/155/77 76/142/77
f 76/142/77 78/156/77 60/140/77
f 78/156/77 80/157/77 60/140/77
f 80/157/77 81/158/77 60/140/77
f 60/140/77 61/159/77 62/141/77
f 83/160/78 82/161/78 58/143/78
f 82/161/78 79/162/78 58/143/78
f 79/162/78 77/163/78 73/144/78
f 77/163/78 74/164/78 73/144/78
f 73/144/78 71/165/78 67/145/78
f 79/162/78 73/144/78 58/143/78
f 71/165/78 68/166/78 67/145/78
f 67/145/78 64/167/78 59/168/78
f 64/167/78 63/169/78 59/168/78
f 59/168/78 58/143/78 67/145/78
f 83/146/79 81/170/79 80/147/79
o Cylinder.002
v -0.101424 -1.738130 -1.615317
v 0.329712 -2.066998 -1.584077
v 0.303029 -1.738130 -1.589493
v 0.709179 -2.066998 -1.456394
v 0.668515 -1.738130 -1.474469
v 0.950951 -1.738130 -1.310601
v 0.973707 -2.066998 -1.291931
v 0.959552 -1.738130 1.304609
v 0.730577 -1.738130 1.445187
v 0.646046 -2.066998 1.483517
v 0.320973 -2.066998 1.589478
v 0.355391 -1.738130 1.581427
v -0.140178 -2.066998 1.613234
v -0.073826 -1.738130 1.616938
v -0.351417 -1.738130 1.579520
v -0.445000 -2.066998 1.556398
v -0.614564 -1.738130 1.498010
v -0.742154 -2.066998 1.440756
v -0.822193 -1.738130 1.393093
v -1.054430 -2.066998 1.227679
v -1.039549 -1.738130 1.240496
v -1.205410 -1.738130 1.078984
v -1.270099 -2.066998 1.006994
v -1.337212 -1.738130 0.911986
v -1.467768 -2.066998 0.684021
v -1.479185 -1.738130 0.657833
v -1.593379 -1.738130 0.294505
v -1.587624 -2.066998 0.321634
v -1.620039 -2.066998 -0.055211
v -1.618517 -1.738130 -0.060413
v -1.549969 -2.066998 -0.466236
v -1.555949 -1.738130 -0.445685
v -1.380964 -2.066998 -0.851743
v -1.442262 -1.738130 -0.734178
v -1.059821 -2.066998 -1.224571
v -1.226288 -1.738130 -1.062580
v -0.973872 -1.738130 -1.293081
v -0.821375 -2.066998 -1.394754
v -0.758511 -1.738130 -1.429315
v -0.454062 -1.738130 -1.556337
v -0.502993 -2.066998 -1.540515
v -0.130246 -2.066998 -1.614828
v 0.935652 -2.066998 1.324434
v 2.270102 -1.738130 0.000000
v 2.270102 -2.066998 0.000000
vt 1.000000 1.000000
vt 0.967340 0.500000
vt 1.000000 0.500000
vt 0.136368 1.000000
vt 0.162050 0.500000
vt 0.175069 1.000000
vt 0.465163 1.000000
vt 0.438042 1.000000
vt 0.455681 0.500000
vt 0.900099 1.000000
vt 0.927881 0.500000
vt 0.932251 1.000000
vt 0.279090 1.000000
vt 0.244591 0.500000
vt 0.281814 0.500000
vt 0.366205 1.000000
vt 0.387063 0.500000
vt 0.388996 1.000000
vt 0.113546 0.500000
vt 0.077658 1.000000
vt 0.050232 0.500000
vt 0.084714 0.500000
vt 0.045192 1.000000
vt 0.012817 0.500000
vt 0.565373 0.500000
vt 0.535193 1.000000
vt 0.531719 0.500000
vt 0.316607 1.000000
vt 0.319416 0.500000
vt 0.205609 1.000000
vt 0.203502 0.500000
vt 0.415148 1.000000
vt 0.424303 0.500000
vt 0.492744 1.000000
vt 0.486210 0.500000
vt 0.345267 1.000000
vt 0.356698 0.500000
vt 0.009988 1.000000
vt 0.574501 1.000000
vt 0.597894 0.500000
vt 0.600937 1.000000
vt 0.102742 1.000000
vt 0.392080 0.056837
vt 0.390780 0.444010
vt 0.294899 0.485539
vt 0.244074 1.000000
vt 0.436550 0.125000
vt 0.424545 0.194655
vt 0.436550 0.194655
vt 0.593785 0.068122
vt 0.520335 0.319085
vt 0.798857 0.484727
vt 0.436550 0.055345
vt 0.424545 0.125000
vt 0.970020 1.000000
vt 0.897210 0.500000
vt 0.234982 0.489195
vt 0.182939 0.479835
vt 0.137591 0.461823
vt 0.105775 0.441505
vt 0.036263 0.358799
vt 0.069219 0.406655
vt 0.019430 0.316040
vt 0.071254 0.090002
vt 0.010621 0.258925
vt 0.031022 0.152612
vt 0.014493 0.206476
vt 0.051929 0.114914
vt 0.095986 0.066211
vt 0.128071 0.043408
vt 0.159037 0.028286
vt 0.197921 0.015919
vt 0.239066 0.010453
vt 0.358118 0.036142
vt 0.302493 0.016452
vt 0.398442 0.250000
vt 0.348968 0.468278
vt 0.546332 0.375619
vt 0.593222 0.431158
vt 0.628362 0.456548
vt 0.675688 0.477628
vt 0.730751 0.488688
vt 0.854852 0.465328
vt 0.894392 0.441578
vt 0.898442 0.250000
vt 0.888229 0.054348
vt 0.845753 0.030118
vt 0.797416 0.015195
vt 0.729257 0.011294
vt 0.684101 0.019527
vt 0.640340 0.037108
vt 0.562385 0.101243
vt 0.532757 0.148753
vt 0.515270 0.202453
vt 0.510722 0.258145
vt 0.424545 0.055345
vn 0.0667 -0.0073 -0.9977
vn -0.8348 0.0407 -0.5490
vn -0.2958 0.0170 0.9551
vn 0.5018 0.0145 -0.8649
vn -0.9963 -0.0104 0.0857
vn -0.6976 0.0036 0.7164
vn -0.7562 -0.0619 -0.6514
vn -0.4162 -0.0160 -0.9091
vn -0.1955 -0.0181 -0.9805
vn 0.3099 -0.0092 0.9507
vn -0.9494 -0.0080 0.3140
vn -0.9858 -0.0074 -0.1680
vn -0.5635 -0.0175 0.8259
vn 0.0514 -0.0216 0.9984
vn -0.8527 -0.0232 0.5219
vn -0.1649 0.0130 -0.9862
vn -0.4509 0.0196 0.8924
vn -0.7848 0.0188 0.6194
vn 0.5232 0.0133 0.8521
vn -0.6742 0.0224 -0.7383
vn -0.3626 -0.0215 0.9317
vn 0.3189 -0.0127 -0.9477
vn -0.5808 -0.0177 -0.8138
vn -0.1833 -0.0170 0.9829
vn -0.9155 -0.0272 -0.4014
vn 0.0000 1.0000 0.0000
vn -0.9975 0.0057 0.0707
vn 0.7048 0.0085 -0.7094
vn 0.0000 -1.0000 -0.0000
vn 0.7055 0.0000 0.7087
vn 0.0637 -0.0113 -0.9979
vn 0.5280 -0.0117 -0.8492
vn -0.7151 -0.0123 0.6989
vn -0.3850 0.0129 -0.9228
vn 0.3412 0.0218 0.9397
vn -0.9540 0.0080 0.2998
vn -0.9871 0.0020 -0.1603
vn -0.5746 -0.0059 0.8184
vn 0.0824 0.0158 0.9965
vn -0.8730 0.0085 0.4877
vn 0.4813 -0.0216 0.8763
vn 0.3002 0.0086 -0.9538
vn -0.5346 0.0134 -0.8450
vn -0.1336 0.0158 0.9909
vn -0.9304 0.0060 -0.3666
vn 0.7059 0.0000 -0.7083
vn 0.7044 -0.0084 0.7097
usemtl None
s off
f 84/171/87 85/172/87 125/173/87
f 119/174/88 116/175/88 117/176/88
f 98/177/89 100/178/89 99/179/89
f 89/180/90 87/181/90 88/182/90
f 110/183/91 112/184/91 111/185/91
f 105/186/92 103/187/92 104/188/92
f 119/174/93 118/189/93 116/175/93
f 122/190/94 124/191/94 121/192/94
f 123/193/95 125/194/95 124/191/95
f 93/195/96 95/196/96 94/197/96
f 109/198/97 111/185/97 108/199/97
f 112/184/98 115/200/98 114/201/98
f 102/202/99 103/187/99 101/203/99
f 94/197/100 97/204/100 96/205/100
f 107/206/101 108/199/101 106/207/101
f 123/193/102 84/208/102 125/194/102
f 100/178/103 102/202/103 101/203/103
f 105/186/104 107/206/104 106/207/104
f 92/209/105 126/210/105 91/211/105
f 119/174/106 120/212/106 118/189/106
f 101/203/107 99/179/107 100/178/107
f 85/172/108 88/182/108 87/181/108
f 120/212/109 121/192/109 118/189/109
f 96/205/110 98/177/110 99/179/110
f 114/201/111 117/176/111 116/175/111
f 91/213/112 89/214/112 86/215/112
f 112/184/113 110/183/113 113/216/113
f 127/217/114 90/218/114 89/219/114
f 103/220/115 114/221/115 85/222/115
f 91/223/116 128/224/116 127/217/116
f 84/171/117 86/225/117 85/172/117
f 89/180/118 90/226/118 87/181/118
f 105/186/119 106/207/119 103/187/119
f 122/190/120 123/193/120 124/191/120
f 93/195/121 92/209/121 95/196/121
f 109/198/122 110/183/122 111/185/122
f 112/184/123 113/216/123 115/200/123
f 102/202/124 104/188/124 103/187/124
f 94/197/125 95/196/125 97/204/125
f 107/206/126 109/198/126 108/199/126
f 92/209/127 93/195/127 126/210/127
f 85/172/128 86/225/128 88/182/128
f 120/212/129 122/190/129 121/192/129
f 96/205/130 97/204/130 98/177/130
f 114/201/131 115/200/131 117/176/131
f 84/227/112 123/228/112 122/229/112
f 122/229/112 120/230/112 117/231/112
f 120/230/112 119/232/112 117/231/112
f 117/231/112 115/233/112 105/234/112
f 122/229/112 117/231/112 105/234/112
f 115/233/112 113/235/112 109/236/112
f 113/235/112 110/237/112 109/236/112
f 109/236/112 107/238/112 105/234/112
f 115/233/112 109/236/112 105/234/112
f 105/234/112 104/239/112 102/240/112
f 102/240/112 100/241/112 98/242/112
f 86/215/112 98/242/112 91/213/112
f 98/242/112 97/243/112 92/244/112
f 102/240/112 98/242/112 86/215/112
f 97/243/112 95/245/112 92/244/112
f 92/244/112 91/213/112 98/242/112
f 91/213/112 127/246/112 89/214/112
f 89/214/112 88/247/112 86/215/112
f 86/215/112 84/227/112 122/229/112
f 122/229/112 105/234/112 102/240/112
f 122/229/112 102/240/112 86/215/112
f 127/217/132 128/224/132 90/218/132
f 114/221/115 116/248/115 118/249/115
f 118/249/115 121/250/115 114/221/115
f 121/250/115 124/251/115 125/252/115
f 85/222/115 121/250/115 125/252/115
f 85/222/115 87/253/115 90/254/115
f 90/254/115 128/255/115 126/256/115
f 126/256/115 93/257/115 90/254/115
f 93/257/115 94/258/115 96/259/115
f 99/260/115 93/257/115 96/259/115
f 99/260/115 101/261/115 103/220/115
f 103/220/115 106/262/115 108/263/115
f 108/263/115 111/264/115 114/221/115
f 111/264/115 112/265/115 114/221/115
f 108/263/115 114/221/115 103/220/115
f 121/250/115 85/222/115 114/221/115
f 85/222/115 90/254/115 103/220/115
f 93/257/115 99/260/115 103/220/115
f 93/257/115 103/220/115 90/254/115
f 91/223/133 126/266/133 128/224/133
